# xmcd
#
# Track frame offsets: 
#        182
#        7235
#        28667
#        51027
#        70215
#        95590
#        114707
#        133942
#        153017
#        173855
#        192737
#
# Disc length: 3214 seconds
#
# Revision: 2
# Processed by: cddbd v1.5.2PL0 Copyright (c) Steve Scherf et al.
# Submitted via: ExactAudioCopy v1.0b3
#
DISCID=9c0c8c0b
DTITLE=Nu Flavor - Nu Flavor
DYEAR=1997
DGENRE=R&B
TTITLE0=Voices Of The Future
TTITLE1=Sweet Sexy Thing
TTITLE2=Heaven
TTITLE3=Baby Be There
TTITLE4=Soul To Soul
TTITLE5=Open Arms
TTITLE6=Havin' A Party
TTITLE7=For The Sex Of It
TTITLE8=Close 2 U (On And On)
TTITLE9=Unconditionally
TTITLE10=Come 'Round My Way  - Sweet Sexy Thing (Remix - Hidden Track)
EXTD=
EXTT0=
EXTT1=
EXTT2=
EXTT3=
EXTT4=
EXTT5=
EXTT6=
EXTT7=
EXTT8=
EXTT9=
EXTT10=11+ Hidden Track, Sweet Sexy Thing (Remix]\n
PLAYORDER=
